<svg width="160" height="32" viewBox="0 0 160 32" fill="none" xmlns="http://www.w3.org/2000/svg">
<path d="M16 0C7.1808 0 0 7.1808 0 16C0 24.8192 7.1808 32 16 32C24.8192 32 32 24.8256 32 16C32 7.1744 24.8256 0 16 0ZM20.4352 9.4912C20.4352 9.6256 20.3264 9.7344 20.192 9.7344H18.2656C17.792 9.7344 17.408 10.1184 17.408 10.592V12.608H20.1472C20.1536 12.608 20.16 12.608 20.1664 12.608C20.3008 12.6208 20.3968 12.736 20.384 12.8704L20.1408 15.712C20.128 15.84 20.0256 15.936 19.8976 15.936H17.4016V25.3632C17.4016 25.4976 17.2928 25.6064 17.1584 25.6064H13.7152C13.5808 25.6064 13.472 25.4976 13.472 25.3632V16.0768V15.9232H11.7504C11.616 15.9232 11.5072 15.8144 11.5072 15.68V12.8384C11.5072 12.704 11.616 12.5952 11.7504 12.5952H13.472V9.856C13.472 7.9488 15.0208 6.4 16.928 6.4H20.1792C20.3136 6.4 20.4224 6.5088 20.4224 6.6432V9.4912H20.4352Z" fill="#5D50C6"/>
<path d="M80 32C88.8366 32 96 24.8366 96 16C96 7.16344 88.8366 0 80 0C71.1634 0 64 7.16344 64 16C64 24.8366 71.1634 32 80 32Z" fill="#5D50C6"/>
<path d="M89.8006 11.4986C89.115 11.8027 88.3774 12.0083 87.6039 12.1002C88.3937 11.627 88.9998 10.8783 89.2858 9.98471C88.5468 10.4231 87.728 10.7411 86.8572 10.9125C86.1596 10.1695 85.1656 9.7052 84.065 9.7052C81.9532 9.7052 80.2405 11.4179 80.2405 13.5297C80.2405 13.8294 80.2745 14.1212 80.3401 14.4013C77.1616 14.2418 74.3434 12.7194 72.457 10.4048C72.1279 10.9696 71.939 11.627 71.939 12.3278C71.939 13.6543 72.6147 14.8254 73.6403 15.511C73.0137 15.4914 72.4236 15.3194 71.9082 15.0322C71.908 15.0484 71.908 15.0647 71.908 15.0807C71.908 16.9337 73.2268 18.4793 74.976 18.8304C74.6554 18.9182 74.3169 18.9647 73.9686 18.9647C73.7216 18.9647 73.4823 18.941 73.249 18.8965C73.7356 20.4156 75.1477 21.5214 76.8216 21.5525C75.5125 22.5784 73.8637 23.1896 72.0714 23.1896C71.7633 23.1896 71.4582 23.1716 71.1595 23.136C72.8512 24.2215 74.8619 24.8544 77.0216 24.8544C84.0561 24.8544 87.9031 19.0269 87.9031 13.9726C87.9031 13.8069 87.8994 13.6417 87.892 13.478C88.6398 12.939 89.2881 12.2656 89.8006 11.4986Z" fill="#F1F2F2"/>
<path d="M144 32C152.837 32 160 24.8366 160 16C160 7.16344 152.837 0 144 0C135.163 0 128 7.16344 128 16C128 24.8366 135.163 32 144 32Z" fill="#5D50C6"/>
<path d="M148.8 8.19995H139.2C137.533 8.19995 136.2 9.53328 136.2 11.2V20.8C136.2 22.4666 137.533 23.8 139.2 23.8H148.8C150.467 23.8 151.8 22.4666 151.8 20.8V11.1999C151.8 9.53328 150.467 8.19995 148.8 8.19995ZM149.667 9.99995H150V12.6666H147.333V9.99995H149.667ZM141.8 14.4C142.267 13.7333 143.133 13.2666 144 13.2666C144.867 13.2666 145.733 13.7333 146.2 14.4C146.533 14.8666 146.733 15.4 146.733 16C146.733 17.5333 145.467 18.7333 144 18.7333C142.533 18.7333 141.267 17.5333 141.267 16C141.267 15.4 141.467 14.8666 141.8 14.4ZM150.267 20.8C150.267 21.6 149.6 22.2666 148.8 22.2666H139.2C138.4 22.2666 137.733 21.6 137.733 20.8V14.4H140.067C139.867 14.8666 139.733 15.4666 139.733 16C139.733 18.3333 141.667 20.2666 144 20.2666C146.333 20.2666 148.267 18.3333 148.267 16C148.267 15.4666 148.133 14.8666 147.933 14.4H150.267L150.267 20.8Z" fill="white"/>
</svg>
