<svg width="100" height="100" viewBox="0 0 100 100" fill="none" xmlns="http://www.w3.org/2000/svg">
<rect width="100" height="100" rx="50" fill="white"/>
<rect x="0.5" y="0.5" width="99" height="99" rx="49.5" stroke="#191825" stroke-opacity="0.1"/>
<path d="M44.4142 49H58C58.5523 49 59 49.4478 59 50C59 50.5523 58.5523 51 58 51H44.4142L47.6569 54.2427C48.0474 54.6332 48.0474 55.2664 47.6569 55.6569C47.2663 56.0474 46.6332 56.0474 46.2426 55.6569L42 51.4143C41.219 50.6332 41.219 49.3669 42 48.5858L46.2426 44.3432C46.6332 43.9527 47.2663 43.9527 47.6569 44.3432C48.0474 44.7337 48.0474 45.3669 47.6569 45.7574L44.4142 49Z" fill="#191825"/>
</svg>
