<svg width="128" height="221" viewBox="0 0 128 221" fill="none" xmlns="http://www.w3.org/2000/svg">
<path d="M33.5745 20.7369C32.1247 19.7331 30.6563 18.7294 29.1693 17.7443C28.7603 17.4655 28.6302 16.9078 28.909 16.4989C29.1878 16.09 29.7455 15.9599 30.1544 16.2387C31.66 17.2238 33.147 18.2275 34.5968 19.2499C35.0057 19.5287 35.1173 20.1049 34.8199 20.5138C34.6526 20.774 34.3552 20.9042 34.0764 20.9042C33.8905 20.9042 33.7232 20.8484 33.5559 20.7369H33.5745ZM25.6562 13.3204C24.1506 12.3724 22.6264 11.4245 21.0836 10.4951C20.6561 10.2349 20.0985 10.365 19.8383 10.8111C19.5781 11.2386 19.7267 11.7962 20.1542 12.0565C21.6784 12.9858 23.2026 13.9152 24.6896 14.8632C24.8383 14.9561 25.0056 15.0119 25.1729 15.0119C25.4703 15.0119 25.7677 14.8632 25.935 14.5844C26.1952 14.1569 26.0837 13.5992 25.6562 13.339V13.3204ZM59.2254 40.8673C59.4671 40.8673 59.7087 40.7743 59.8946 40.5699C60.2292 40.1981 60.2106 39.6219 59.8388 39.2873C58.5191 38.0977 57.1808 36.9081 55.8239 35.7185C55.4522 35.3839 54.8759 35.4397 54.5414 35.8114C54.2068 36.1832 54.2625 36.7594 54.6343 37.094C55.9912 38.265 57.3109 39.4546 58.612 40.6442C58.7793 40.8115 59.0024 40.8859 59.2254 40.8859V40.8673ZM52.2923 204.661C50.8238 203.732 49.3368 202.766 47.8312 201.762C47.4223 201.483 46.8646 201.594 46.5672 202.003C46.2884 202.412 46.4 202.97 46.8089 203.267C48.3331 204.29 49.8387 205.275 51.3071 206.204C51.4558 206.297 51.6231 206.334 51.7904 206.334C52.0878 206.334 52.3852 206.186 52.5525 205.907C52.8127 205.479 52.6826 204.922 52.2737 204.661H52.2923ZM16.4553 7.79988C14.9125 6.90768 13.3511 6.03406 11.7712 5.17903C11.3251 4.93739 10.7861 5.10468 10.5445 5.53219C10.3028 5.9783 10.4701 6.51734 10.8976 6.75898C12.4589 7.61401 14.0203 8.48763 15.5445 9.36124C15.6932 9.43559 15.8419 9.47277 15.9906 9.47277C16.3066 9.47277 16.604 9.30548 16.7713 9.02667C17.0129 8.59915 16.8642 8.04152 16.4367 7.79988H16.4553ZM51.1398 33.8597C51.4001 33.8597 51.6603 33.7482 51.8276 33.5252C52.1436 33.1348 52.0878 32.5772 51.7161 32.2612C50.3406 31.1274 48.965 29.9935 47.5524 28.8783C47.162 28.5809 46.5858 28.6366 46.2884 29.027C45.9725 29.4173 46.0468 29.9935 46.4372 30.2909C47.8312 31.4062 49.2067 32.5214 50.5822 33.6553C50.7495 33.804 50.9539 33.8597 51.1584 33.8597H51.1398ZM39.188 195.535C38.7976 195.238 38.2214 195.312 37.924 195.702C37.6266 196.093 37.701 196.669 38.0913 196.966C39.5411 198.081 40.991 199.141 42.4036 200.163C42.5709 200.275 42.7568 200.331 42.9241 200.331C43.2029 200.331 43.4817 200.2 43.649 199.959C43.9464 199.55 43.8535 198.992 43.4445 198.695C42.0319 197.673 40.6007 196.613 39.1694 195.516L39.188 195.535ZM42.1992 27.0195C42.3665 27.1496 42.5523 27.2054 42.7382 27.2054C43.017 27.2054 43.2773 27.0753 43.4631 26.8522C43.7605 26.4619 43.6862 25.8856 43.2959 25.5882C41.8832 24.5102 40.4334 23.4507 38.9835 22.3912C38.5932 22.0938 38.017 22.1867 37.7196 22.5956C37.4222 23.0046 37.5151 23.5622 37.924 23.8596C39.3738 24.9005 40.8051 25.96 42.1992 27.0381V27.0195ZM30.8607 188.862C30.4704 188.546 29.9128 188.583 29.5782 188.973C29.2622 189.364 29.2994 189.921 29.6897 190.256C31.0838 191.427 32.4779 192.561 33.8348 193.658C34.0021 193.788 34.2065 193.862 34.3924 193.862C34.6526 193.862 34.9128 193.751 35.0987 193.527C35.4147 193.137 35.3403 192.561 34.95 192.264C33.5931 191.167 32.2176 190.052 30.8235 188.881L30.8607 188.862ZM122.498 143.229C122.925 144.977 123.316 146.705 123.669 148.415C123.762 148.843 124.133 149.14 124.561 149.14C124.617 149.14 124.691 149.14 124.747 149.14C125.23 149.047 125.546 148.564 125.453 148.081C125.1 146.352 124.71 144.586 124.282 142.82C124.171 142.337 123.687 142.04 123.185 142.151C122.702 142.263 122.405 142.765 122.516 143.248L122.498 143.229ZM124.635 153.657C124.933 155.423 125.174 157.189 125.397 158.917C125.453 159.382 125.844 159.717 126.29 159.717C126.327 159.717 126.364 159.717 126.401 159.717C126.903 159.661 127.256 159.215 127.182 158.713C126.977 156.947 126.717 155.181 126.42 153.378C126.345 152.895 125.862 152.542 125.379 152.635C124.877 152.709 124.561 153.174 124.635 153.676V153.657ZM7.01277 2.63252C5.43282 1.81467 3.83431 0.99681 2.21719 0.197542C1.77109 -0.0255099 1.23206 0.160367 1.009 0.60647C0.785952 1.05257 0.971831 1.59162 1.41793 1.81467C3.01647 2.61393 4.615 3.4132 6.17636 4.23106C6.30648 4.30541 6.45518 4.324 6.58529 4.324C6.90128 4.324 7.21726 4.13812 7.38455 3.84072C7.6076 3.39461 7.44033 2.85557 6.99422 2.61393L7.01277 2.63252ZM119.635 132.969C120.174 134.679 120.676 136.389 121.159 138.081C121.271 138.471 121.643 138.731 122.033 138.731C122.107 138.731 122.2 138.731 122.275 138.694C122.758 138.564 123.037 138.062 122.907 137.579C122.423 135.869 121.922 134.159 121.364 132.43C121.215 131.947 120.713 131.686 120.23 131.835C119.747 131.984 119.487 132.486 119.635 132.969ZM125.918 164.196C126.048 165.981 126.141 167.765 126.197 169.494C126.197 169.977 126.606 170.367 127.107 170.367H127.126C127.628 170.367 128.018 169.94 128 169.438C127.944 167.672 127.851 165.869 127.721 164.047C127.684 163.546 127.238 163.174 126.754 163.211C126.252 163.248 125.881 163.676 125.918 164.178V164.196ZM117.944 127.932C118.074 128.303 118.427 128.545 118.799 128.545C118.892 128.545 119.003 128.545 119.096 128.489C119.561 128.322 119.821 127.802 119.654 127.337C119.078 125.664 118.446 123.973 117.795 122.281C117.609 121.816 117.089 121.575 116.624 121.761C116.159 121.947 115.918 122.467 116.104 122.932C116.754 124.605 117.349 126.277 117.944 127.932ZM99.4862 89.604C99.6535 89.8829 99.9509 90.0315 100.248 90.0315C100.416 90.0315 100.583 89.9944 100.732 89.9014C101.159 89.6412 101.289 89.0836 101.029 88.6561C100.1 87.1505 99.1331 85.6263 98.1479 84.1207C97.8691 83.6932 97.3115 83.5816 96.9026 83.8605C96.4751 84.1393 96.3635 84.6969 96.6423 85.1058C97.6275 86.6114 98.5755 88.0984 99.5048 89.604H99.4862ZM109.765 108.285C109.914 108.601 110.248 108.786 110.583 108.786C110.713 108.786 110.843 108.749 110.973 108.694C111.42 108.47 111.605 107.931 111.401 107.485C110.62 105.887 109.821 104.288 109.003 102.671C108.78 102.225 108.222 102.058 107.776 102.281C107.33 102.504 107.163 103.061 107.386 103.508C108.204 105.106 109.003 106.686 109.765 108.266V108.285ZM91.6422 218.769C89.9508 218.769 88.2035 218.639 86.4191 218.416C85.9358 218.361 85.4712 218.714 85.4154 219.197C85.3597 219.699 85.7128 220.145 86.1961 220.201C88.0548 220.424 89.8764 220.554 91.6422 220.554C92.1441 220.554 92.5531 220.145 92.5531 219.662C92.5531 219.16 92.1627 218.751 91.6609 218.751L91.6422 218.769ZM61.5117 209.978C59.9875 209.178 58.4262 208.323 56.8648 207.412C56.4373 207.171 55.8797 207.319 55.638 207.747C55.3964 208.175 55.5451 208.732 55.9726 208.974C57.5711 209.903 59.1511 210.758 60.6939 211.576C60.824 211.65 60.9727 211.669 61.1028 211.669C61.4188 211.669 61.7347 211.483 61.902 211.186C62.1251 210.74 61.9578 210.201 61.5117 209.959V209.978ZM111.085 212.598C109.709 213.658 108.26 214.587 106.717 215.387C106.271 215.61 106.103 216.167 106.327 216.613C106.494 216.929 106.81 217.097 107.126 217.097C107.274 217.097 107.405 217.059 107.535 217.004C109.152 216.167 110.732 215.163 112.182 214.048C112.572 213.751 112.646 213.175 112.349 212.784C112.033 212.394 111.475 212.32 111.085 212.617V212.598ZM115.323 118.489C115.788 118.303 116.011 117.764 115.806 117.3C115.118 115.664 114.412 114.01 113.669 112.374C113.464 111.928 112.925 111.723 112.479 111.928C112.014 112.132 111.828 112.671 112.033 113.117C112.776 114.753 113.483 116.37 114.152 118.006C114.301 118.359 114.635 118.564 114.988 118.564C115.1 118.564 115.23 118.545 115.341 118.489H115.323ZM106.457 97.9499C105.602 96.3885 104.709 94.8272 103.799 93.2658C103.557 92.8383 102.999 92.6896 102.572 92.9498C102.144 93.21 101.996 93.7491 102.256 94.1766C103.167 95.7194 104.04 97.2621 104.877 98.8235C105.044 99.1209 105.341 99.2882 105.676 99.2882C105.825 99.2882 105.973 99.251 106.103 99.1767C106.55 98.935 106.698 98.3774 106.457 97.9499ZM123.836 195.014C123.353 194.847 122.851 195.089 122.684 195.572C122.089 197.264 121.42 198.881 120.676 200.423C120.453 200.87 120.639 201.409 121.104 201.632C121.234 201.687 121.364 201.725 121.494 201.725C121.829 201.725 122.145 201.539 122.312 201.223C123.093 199.624 123.78 197.933 124.394 196.185C124.561 195.721 124.319 195.2 123.836 195.033V195.014ZM127.145 173.936C126.606 173.918 126.234 174.308 126.215 174.81C126.159 176.613 126.067 178.379 125.899 180.089C125.862 180.59 126.215 181.018 126.717 181.074C126.736 181.074 126.773 181.074 126.791 181.074C127.256 181.074 127.647 180.721 127.684 180.256C127.851 178.509 127.944 176.687 128 174.865C128 174.364 127.628 173.955 127.126 173.936H127.145ZM101.94 217.32C100.323 217.821 98.6126 218.193 96.8654 218.435C96.3635 218.509 96.029 218.955 96.0847 219.457C96.1405 219.903 96.5308 220.238 96.9769 220.238C97.0141 220.238 97.0512 220.238 97.107 220.238C98.9472 219.978 100.769 219.587 102.479 219.067C102.962 218.918 103.222 218.416 103.074 217.933C102.925 217.45 102.423 217.19 101.94 217.338V217.32ZM126.29 184.587C125.806 184.512 125.323 184.847 125.249 185.33C124.97 187.096 124.598 188.843 124.189 190.498C124.059 190.981 124.357 191.464 124.84 191.594C124.914 191.594 124.988 191.613 125.063 191.613C125.472 191.613 125.844 191.334 125.936 190.925C126.364 189.215 126.717 187.431 127.015 185.609C127.089 185.107 126.754 184.643 126.271 184.568L126.29 184.587ZM119.356 204.68C118.947 204.401 118.371 204.513 118.111 204.94C117.145 206.409 116.066 207.803 114.933 209.048C114.598 209.42 114.617 209.996 114.988 210.331C115.156 210.479 115.379 210.572 115.602 210.572C115.843 210.572 116.085 210.479 116.271 210.275C117.479 208.955 118.613 207.487 119.635 205.944C119.914 205.535 119.803 204.959 119.375 204.699L119.356 204.68ZM75.0993 54.4362C73.8911 53.1165 72.6643 51.8154 71.419 50.5143C71.0658 50.1611 70.5082 50.1425 70.1364 50.4957C69.7832 50.8488 69.7646 51.4065 70.1178 51.7782C71.3632 53.0608 72.5713 54.3619 73.761 55.663C73.9468 55.8489 74.1885 55.9604 74.4301 55.9604C74.6532 55.9604 74.8762 55.8861 75.0435 55.7188C75.4153 55.3842 75.4338 54.808 75.0993 54.4362ZM71.1773 214.346C69.5788 213.714 67.9431 213.026 66.3074 212.282C65.8613 212.078 65.3222 212.282 65.0991 212.728C64.8946 213.175 65.0992 213.714 65.5452 213.918C67.2181 214.68 68.891 215.387 70.5267 216.037C70.6383 216.074 70.7498 216.093 70.8613 216.093C71.2145 216.093 71.5676 215.87 71.6978 215.517C71.8836 215.052 71.642 214.531 71.1773 214.346ZM67.0136 48.228C67.2367 48.228 67.4783 48.135 67.6456 47.9678C67.9988 47.6146 67.9988 47.0384 67.6456 46.6852C66.3817 45.4212 65.0991 44.1759 63.798 42.9305C63.4448 42.5773 62.8686 42.5959 62.5155 42.9677C62.1623 43.3208 62.1809 43.8971 62.5526 44.2502C63.8537 45.477 65.1177 46.7224 66.3817 47.9678C66.549 48.135 66.7906 48.228 67.0136 48.228ZM92.0884 75.2358C91.791 74.8269 91.2333 74.7339 90.8244 75.0313C90.4155 75.3287 90.3225 75.8864 90.6199 76.2953C91.6609 77.7451 92.7018 79.195 93.6869 80.6448C93.8542 80.905 94.1516 81.0351 94.4304 81.0351C94.6163 81.0351 94.7836 80.9794 94.9508 80.8679C95.3598 80.589 95.4713 80.0128 95.1739 79.6039C94.1702 78.1355 93.1293 76.667 92.0698 75.2172L92.0884 75.2358ZM88.1664 72.3733C88.3522 72.3733 88.5567 72.3175 88.7054 72.1874C89.0958 71.89 89.1887 71.3138 88.8727 70.9235C87.7946 69.5108 86.698 68.0981 85.5641 66.6855C85.2481 66.2951 84.6905 66.2394 84.3002 66.5368C83.9098 66.8528 83.854 67.4104 84.1514 67.8007C85.2667 69.1948 86.3634 70.6075 87.4229 72.0015C87.6087 72.2432 87.869 72.3547 88.1478 72.3547L88.1664 72.3733ZM81.2704 217.487C79.6161 217.115 77.906 216.65 76.1774 216.111C75.6941 215.963 75.1922 216.223 75.0435 216.706C74.8948 217.19 75.155 217.691 75.6383 217.84C77.4041 218.398 79.17 218.862 80.8801 219.253C80.9544 219.253 81.0101 219.271 81.0845 219.271C81.4934 219.271 81.8652 218.993 81.9581 218.565C82.0696 218.082 81.7537 217.598 81.2704 217.487ZM78.6867 58.4326C78.3521 58.0608 77.7759 58.0237 77.4041 58.3582C77.0324 58.6928 76.9952 59.2504 77.3298 59.6408C78.5008 60.9791 79.6718 62.336 80.8057 63.6929C80.9916 63.9159 81.2332 64.0089 81.4934 64.0089C81.6979 64.0089 81.9023 63.9345 82.0696 63.8044C82.46 63.4884 82.4971 62.9122 82.1811 62.5219C81.0473 61.1464 79.8763 59.7895 78.6867 58.4326Z" fill="#FF5722"/>
</svg>
