<svg width="392" height="178" viewBox="0 0 392 178" fill="none" xmlns="http://www.w3.org/2000/svg">
<path d="M173.299 1.34191C173.299 1.84378 172.89 2.25271 172.388 2.25271C170.604 2.25271 168.838 2.25271 167.054 2.28988C166.552 2.28988 166.162 1.89954 166.143 1.39768C166.143 0.89581 166.533 0.486882 167.035 0.486882C168.82 0.468295 170.623 0.449707 172.407 0.449707C172.909 0.449707 173.318 0.858635 173.318 1.3605L173.299 1.34191ZM150.92 1.02592C149.135 1.11886 147.351 1.23039 145.548 1.34191C145.046 1.37909 144.674 1.8066 144.711 2.30847C144.749 2.79175 145.139 3.1635 145.604 3.1635C145.622 3.1635 145.641 3.1635 145.659 3.1635C147.444 3.05198 149.228 2.94045 150.994 2.84751C151.496 2.82892 151.868 2.40141 151.849 1.89954C151.831 1.39768 151.403 1.00734 150.901 1.04451L150.92 1.02592ZM161.663 0.598408C159.879 0.654171 158.076 0.709934 156.292 0.784284C155.79 0.802872 155.399 1.23039 155.418 1.71367C155.437 2.19694 155.845 2.58728 156.329 2.58728H156.366C158.15 2.51293 159.935 2.45717 161.719 2.40141C162.221 2.40141 162.611 1.97389 162.593 1.47203C162.593 0.970161 162.165 0.598408 161.663 0.598408ZM140.195 1.71367C138.41 1.84378 136.626 1.99248 134.841 2.15977C134.34 2.19694 133.968 2.64305 134.024 3.14491C134.061 3.6096 134.451 3.96277 134.916 3.96277C134.934 3.96277 134.972 3.96277 134.99 3.96277C136.775 3.79548 138.54 3.66537 140.325 3.51667C140.827 3.47949 141.198 3.05198 141.161 2.55011C141.124 2.04824 140.697 1.67649 140.195 1.71367ZM183.132 0.561233C181.348 0.524058 179.563 0.486882 177.76 0.468295C177.296 0.468295 176.849 0.858635 176.849 1.3605C176.849 1.86237 177.24 2.27129 177.742 2.27129C179.526 2.27129 181.31 2.32706 183.076 2.36423H183.095C183.578 2.36423 183.987 1.97389 184.006 1.47203C184.006 0.970161 183.615 0.561233 183.113 0.542645L183.132 0.561233ZM129.488 2.66164C127.704 2.84751 125.919 3.03339 124.154 3.23785C123.652 3.29361 123.299 3.73972 123.354 4.24158C123.41 4.70627 123.8 5.04085 124.246 5.04085C124.284 5.04085 124.321 5.04085 124.358 5.04085C126.142 4.83639 127.908 4.65051 129.674 4.46464C130.176 4.40887 130.529 3.96277 130.473 3.47949C130.418 2.97762 129.99 2.62446 129.488 2.68022V2.66164ZM118.819 3.88842C117.053 4.11147 115.269 4.35311 113.503 4.59475C113.001 4.6691 112.666 5.1152 112.741 5.61707C112.796 6.06317 113.187 6.39775 113.633 6.39775C113.67 6.39775 113.707 6.39775 113.763 6.39775C115.529 6.15611 117.295 5.91447 119.061 5.69142C119.562 5.63566 119.916 5.17096 119.841 4.68769C119.785 4.18582 119.339 3.83266 118.837 3.90701L118.819 3.88842ZM225.939 3.64678C224.174 3.42373 222.389 3.21926 220.605 3.0148C220.121 2.95904 219.657 3.3122 219.601 3.81407C219.545 4.31593 219.898 4.76204 220.4 4.8178C222.185 5.02226 223.951 5.22673 225.716 5.43119C225.754 5.43119 225.791 5.43119 225.828 5.43119C226.274 5.43119 226.664 5.09661 226.72 4.63192C226.776 4.13006 226.423 3.68395 225.939 3.62819V3.64678ZM193.876 0.932985C192.091 0.840047 190.307 0.784284 188.504 0.709934C188.002 0.709934 187.593 1.08169 187.575 1.58355C187.575 2.08542 187.946 2.49435 188.448 2.51293C190.233 2.5687 192.017 2.64305 193.783 2.73599H193.82C194.303 2.73599 194.694 2.36423 194.731 1.88095C194.749 1.37909 194.359 0.951573 193.876 0.932985ZM236.572 5.1152C234.806 4.85498 233.04 4.59475 231.255 4.35311C230.754 4.27876 230.307 4.63192 230.233 5.13379C230.159 5.63566 230.512 6.08176 231.014 6.15611C232.78 6.39775 234.545 6.65798 236.293 6.9182C236.33 6.9182 236.386 6.9182 236.423 6.9182C236.869 6.9182 237.241 6.60221 237.315 6.15611C237.389 5.65424 237.055 5.20814 236.553 5.13379L236.572 5.1152ZM215.27 2.47576C213.486 2.30847 211.72 2.14118 209.935 1.99248C209.471 1.97389 209.006 2.30847 208.95 2.81034C208.913 3.3122 209.285 3.73972 209.768 3.79548C211.553 3.94418 213.318 4.11147 215.084 4.27876C215.121 4.27876 215.14 4.27876 215.177 4.27876C215.642 4.27876 216.032 3.92559 216.069 3.4609C216.125 2.95904 215.753 2.51293 215.252 2.47576H215.27ZM204.582 1.56496C202.798 1.43485 201.013 1.32333 199.229 1.2118H199.173C198.69 1.2118 198.3 1.58355 198.262 2.06683C198.225 2.5687 198.616 2.99621 199.117 3.0148C200.902 3.12633 202.668 3.23785 204.452 3.36796H204.526C204.991 3.36796 205.4 3.0148 205.419 2.53152C205.456 2.02966 205.084 1.60214 204.582 1.56496ZM87.034 9.1673C85.2868 9.52047 83.5395 9.91081 81.7737 10.2826C81.2904 10.3941 80.9745 10.8774 81.086 11.3606C81.1789 11.7882 81.5507 12.067 81.9596 12.067C82.0154 12.067 82.0897 12.067 82.1455 12.0484C83.8927 11.658 85.64 11.2863 87.3686 10.9331C87.8519 10.8402 88.1679 10.3569 88.0749 9.85505C87.9634 9.37177 87.4987 9.05578 86.9969 9.14872L87.034 9.1673ZM108.187 5.37543C106.421 5.65424 104.655 5.93306 102.889 6.23046C102.387 6.30481 102.071 6.7695 102.146 7.27137C102.22 7.71747 102.61 8.03346 103.038 8.03346C103.094 8.03346 103.131 8.03346 103.187 8.03346C104.952 7.73606 106.7 7.45724 108.466 7.19702C108.967 7.12267 109.302 6.65798 109.228 6.1747C109.153 5.67283 108.689 5.33825 108.205 5.4126L108.187 5.37543ZM15.3044 31.3609C13.6501 32.0487 12.0144 32.7736 10.3786 33.4799C9.91395 33.6844 9.70949 34.2234 9.91395 34.6695C10.0627 35.0041 10.3972 35.2086 10.7504 35.2086C10.8805 35.2086 10.992 35.19 11.1222 35.1342C12.7579 34.4093 14.3936 33.703 16.0293 33.0152C16.494 32.8294 16.6984 32.2903 16.5126 31.8256C16.3267 31.3609 15.7877 31.1565 15.323 31.3423L15.3044 31.3609ZM45.5093 20.134C43.7992 20.6916 42.1077 21.2493 40.4162 21.8255C39.9516 21.9928 39.6914 22.4946 39.8586 22.9779C39.9888 23.3497 40.3419 23.5913 40.7137 23.5913C40.8066 23.5913 40.8995 23.5913 41.0111 23.5355C42.7025 22.9593 44.394 22.4017 46.0855 21.8627C46.5688 21.714 46.829 21.1935 46.6617 20.7288C46.513 20.2455 45.9925 19.9853 45.5278 20.1526L45.5093 20.134ZM35.3418 23.5913C33.6504 24.1861 31.9775 24.7995 30.286 25.4315C29.8213 25.5988 29.5797 26.1192 29.747 26.6025C29.8771 26.9743 30.2302 27.1973 30.602 27.1973C30.7135 27.1973 30.8064 27.1973 30.918 27.1415C32.5909 26.5282 34.2638 25.9148 35.9366 25.32C36.4013 25.1527 36.6615 24.6322 36.4943 24.1675C36.327 23.7028 35.8065 23.4426 35.3418 23.6099V23.5913ZM387.726 90.9715C387.838 91.3804 388.191 91.6406 388.6 91.6406C388.674 91.6406 388.748 91.6406 388.841 91.6034C389.325 91.4733 389.603 90.9715 389.473 90.4882C389.009 88.7781 388.432 87.0309 387.763 85.3394C387.577 84.8747 387.057 84.6517 386.592 84.819C386.128 85.0048 385.905 85.5253 386.072 85.99C386.722 87.6257 387.261 89.2986 387.726 90.9715ZM5.43434 35.6733C3.81722 36.4168 2.1815 37.1789 0.564378 37.941C0.118275 38.164 -0.0861949 38.703 0.136857 39.1492C0.285558 39.4651 0.62014 39.6696 0.954717 39.6696C1.08483 39.6696 1.21494 39.6324 1.34506 39.5767C2.96218 38.8146 4.56071 38.0525 6.17784 37.309C6.62394 37.1045 6.82841 36.5655 6.62395 36.1194C6.41949 35.6733 5.88045 35.4688 5.43434 35.6733ZM25.2302 27.3088C23.5573 27.9594 21.903 28.61 20.2301 29.2977C19.7654 29.4836 19.5423 30.004 19.7282 30.4687C19.8769 30.8219 20.2115 31.0264 20.5647 31.0264C20.6762 31.0264 20.7877 31.0078 20.8993 30.952C22.5535 30.2829 24.2078 29.6323 25.8621 28.9817C26.3268 28.7958 26.5499 28.2754 26.3826 27.8107C26.1967 27.346 25.6763 27.123 25.2116 27.2902L25.2302 27.3088ZM55.7325 16.9555C54.0224 17.4574 52.2937 17.9778 50.5837 18.4983C50.1004 18.647 49.8402 19.1489 49.9889 19.6321C50.1004 20.0225 50.4722 20.2641 50.8439 20.2641C50.9368 20.2641 51.0298 20.2641 51.1041 20.2269C52.8142 19.7065 54.5243 19.186 56.2157 18.6842C56.699 18.5355 56.9778 18.0336 56.8291 17.5689C56.6804 17.0856 56.1786 16.8068 55.7139 16.9555H55.7325ZM247.129 6.84385C245.382 6.52786 243.616 6.23046 241.832 5.93306C241.349 5.85871 240.865 6.19328 240.791 6.67656C240.717 7.17843 241.051 7.64312 241.534 7.71747C243.3 8.01487 245.047 8.31227 246.795 8.60968C246.85 8.60968 246.906 8.60968 246.962 8.60968C247.39 8.60968 247.78 8.29369 247.854 7.86617C247.947 7.38289 247.613 6.89961 247.129 6.82526V6.84385ZM97.5546 7.14125C95.7888 7.45724 94.023 7.79182 92.2757 8.1264C91.7925 8.21934 91.4579 8.70261 91.5508 9.18589C91.6252 9.61341 92.0155 9.91081 92.443 9.91081C92.4988 9.91081 92.5546 9.91081 92.6103 9.91081C94.3576 9.57623 96.1234 9.24166 97.8706 8.92567C98.3539 8.83273 98.6885 8.36804 98.5955 7.88476C98.5026 7.40148 98.0379 7.0669 97.5546 7.15984V7.14125ZM66.0858 14.093C64.3571 14.5391 62.6285 15.0224 60.8998 15.4871C60.4165 15.6172 60.1377 16.1191 60.2678 16.6024C60.3794 17.0113 60.7511 17.2715 61.1415 17.2715C61.2158 17.2715 61.3087 17.2715 61.3831 17.2343C63.0932 16.7511 64.8218 16.2864 66.5505 15.8403C67.0338 15.7102 67.3126 15.2269 67.201 14.7436C67.0709 14.2603 66.5876 13.9815 66.1044 14.093H66.0858ZM76.5134 11.4908C74.7662 11.8997 73.0375 12.3272 71.2903 12.7547C70.807 12.8848 70.5096 13.3681 70.6397 13.8514C70.7513 14.2603 71.1044 14.5391 71.5134 14.5391C71.5877 14.5391 71.6621 14.5391 71.7364 14.5205C73.4651 14.093 75.1937 13.6655 76.941 13.2566C77.4242 13.1451 77.7216 12.6618 77.6101 12.1785C77.4986 11.6952 77.0153 11.3792 76.532 11.5093L76.5134 11.4908ZM388.786 96.0645C389.046 97.7931 389.213 99.5404 389.269 101.269C389.269 101.752 389.678 102.143 390.18 102.143H390.217C390.719 102.143 391.109 101.715 391.091 101.213C391.035 99.4103 390.867 97.5887 390.589 95.7857C390.514 95.2838 390.05 94.9492 389.566 95.0236C389.064 95.0979 388.73 95.5626 388.804 96.0459L388.786 96.0645ZM360.941 51.9746C360.551 51.6586 359.975 51.733 359.677 52.1233C359.361 52.5137 359.436 53.0899 359.826 53.3873C361.239 54.5025 362.596 55.6364 363.915 56.7702C364.083 56.9189 364.306 56.9933 364.51 56.9933C364.77 56.9933 365.012 56.8818 365.198 56.6773C365.532 56.3055 365.477 55.7293 365.105 55.3947C363.767 54.2423 362.373 53.0899 360.941 51.956V51.9746ZM369.826 143.035C368.599 144.262 367.317 145.489 365.997 146.697C365.625 147.032 365.607 147.608 365.941 147.98C366.127 148.184 366.369 148.277 366.611 148.277C366.834 148.277 367.038 148.203 367.224 148.035C368.562 146.809 369.882 145.563 371.127 144.299C371.481 143.946 371.481 143.37 371.127 143.017C370.774 142.664 370.198 142.664 369.845 143.017L369.826 143.035ZM369.083 59.0379C368.73 58.6847 368.153 58.7033 367.8 59.0751C367.466 59.4283 367.466 60.0045 367.837 60.3576C369.138 61.5844 370.402 62.8484 371.573 64.1123C371.759 64.2982 371.982 64.3912 372.224 64.3912C372.447 64.3912 372.67 64.3168 372.837 64.1495C373.209 63.8149 373.209 63.2387 372.875 62.867C371.666 61.5844 370.384 60.3019 369.064 59.0379H369.083ZM352.242 45.6176C351.833 45.3388 351.276 45.4504 350.997 45.8593C350.718 46.2682 350.83 46.8258 351.239 47.1232C352.726 48.127 354.175 49.1493 355.588 50.1902C355.755 50.3017 355.941 50.3575 356.127 50.3575C356.406 50.3575 356.685 50.2274 356.852 49.9857C357.149 49.5768 357.057 49.0192 356.648 48.7218C355.216 47.6809 353.748 46.64 352.242 45.6362V45.6176ZM361.982 150.192C360.644 151.307 359.268 152.404 357.837 153.519C357.447 153.816 357.373 154.392 357.67 154.783C357.856 155.006 358.116 155.136 358.376 155.136C358.562 155.136 358.767 155.08 358.934 154.95C360.384 153.835 361.778 152.701 363.135 151.586C363.525 151.27 363.562 150.694 363.246 150.303C362.93 149.913 362.354 149.876 361.982 150.192ZM376.852 135.117C375.793 136.474 374.659 137.831 373.451 139.169C373.116 139.541 373.153 140.117 373.525 140.452C373.692 140.6 373.916 140.675 374.12 140.675C374.362 140.675 374.622 140.563 374.789 140.377C376.016 139.002 377.168 137.608 378.265 136.232C378.581 135.842 378.507 135.266 378.116 134.968C377.726 134.671 377.15 134.727 376.852 135.117ZM390.105 105.693C389.622 105.656 389.176 106.009 389.12 106.511C388.971 108.239 388.711 109.987 388.358 111.697C388.265 112.18 388.563 112.663 389.064 112.775C389.12 112.775 389.195 112.793 389.25 112.793C389.659 112.793 390.05 112.496 390.143 112.068C390.514 110.284 390.774 108.481 390.942 106.678C390.979 106.176 390.626 105.749 390.124 105.693H390.105ZM257.668 8.8699C255.921 8.51674 254.174 8.16357 252.408 7.829C251.925 7.73606 251.442 8.05205 251.349 8.55391C251.256 9.03719 251.572 9.52047 252.074 9.61341C253.839 9.94799 255.568 10.3012 257.315 10.6543C257.371 10.6543 257.445 10.6543 257.501 10.6543C257.929 10.6543 258.3 10.3569 258.393 9.9294C258.486 9.44612 258.17 8.96284 257.687 8.8699H257.668ZM353.581 156.697C352.168 157.72 350.718 158.723 349.213 159.727C348.804 160.006 348.692 160.564 348.971 160.972C349.138 161.233 349.436 161.381 349.714 161.381C349.882 161.381 350.068 161.326 350.216 161.233C351.74 160.21 353.209 159.188 354.64 158.166C355.049 157.868 355.142 157.311 354.845 156.902C354.547 156.493 353.99 156.4 353.581 156.697ZM379.826 71.1571C378.785 69.7258 377.67 68.2946 376.499 66.9005C376.183 66.5101 375.607 66.473 375.217 66.789C374.826 67.1049 374.789 67.6812 375.105 68.0715C376.258 69.447 377.354 70.8411 378.358 72.2351C378.525 72.4768 378.804 72.6069 379.083 72.6069C379.269 72.6069 379.455 72.5511 379.622 72.4396C380.031 72.1422 380.105 71.5846 379.826 71.1756V71.1571ZM383.971 126.009C383.544 125.768 382.986 125.916 382.745 126.362C381.908 127.868 380.979 129.374 379.975 130.861C379.696 131.269 379.808 131.827 380.217 132.106C380.365 132.217 380.551 132.255 380.719 132.255C381.016 132.255 381.295 132.106 381.462 131.864C382.484 130.34 383.451 128.797 384.306 127.255C384.548 126.827 384.399 126.269 383.953 126.028L383.971 126.009ZM385.514 80.3765C384.715 78.7966 383.823 77.2166 382.856 75.6553C382.596 75.2277 382.038 75.0976 381.611 75.3579C381.183 75.6181 381.053 76.1757 381.313 76.6032C382.261 78.1274 383.116 79.6702 383.897 81.1944C384.046 81.5104 384.38 81.6962 384.696 81.6962C384.826 81.6962 384.975 81.6591 385.105 81.6033C385.551 81.3802 385.737 80.8412 385.496 80.3951L385.514 80.3765ZM388.154 116.176C387.67 116.028 387.169 116.288 387.02 116.753C386.481 118.388 385.849 120.024 385.124 121.66C384.919 122.124 385.124 122.645 385.589 122.849C385.7 122.905 385.83 122.924 385.96 122.924C386.313 122.924 386.629 122.719 386.778 122.385C387.522 120.712 388.191 119.002 388.748 117.31C388.897 116.827 388.656 116.325 388.172 116.176H388.154ZM319.156 27.8107C317.521 27.1044 315.866 26.4166 314.212 25.7289C313.747 25.543 313.227 25.7661 313.041 26.2307C312.855 26.6954 313.078 27.2159 313.543 27.4018C315.197 28.0709 316.852 28.7587 318.469 29.465C318.58 29.5208 318.71 29.5393 318.822 29.5393C319.175 29.5393 319.509 29.3349 319.658 29.0003C319.863 28.5356 319.658 28.0152 319.194 27.8107H319.156ZM299.119 20.0968C297.427 19.5206 295.736 18.963 294.026 18.4054C293.561 18.2567 293.041 18.5169 292.892 18.9816C292.743 19.4649 293.004 19.9667 293.468 20.1154C295.178 20.673 296.87 21.2307 298.543 21.8069C298.636 21.8441 298.747 21.8627 298.84 21.8627C299.212 21.8627 299.565 21.621 299.695 21.2493C299.862 20.7846 299.602 20.2641 299.138 20.0968H299.119ZM309.212 23.7586C307.558 23.1266 305.885 22.4946 304.175 21.8812C303.71 21.714 303.19 21.9556 303.022 22.4203C302.855 22.885 303.097 23.4054 303.561 23.5727C305.253 24.1861 306.907 24.7995 308.561 25.4501C308.673 25.4872 308.784 25.5058 308.877 25.5058C309.249 25.5058 309.584 25.2828 309.714 24.9296C309.9 24.4649 309.658 23.9445 309.193 23.7586H309.212ZM288.896 16.7882C287.186 16.2678 285.476 15.7659 283.747 15.264C283.264 15.1339 282.762 15.4127 282.632 15.8774C282.502 16.3607 282.78 16.8626 283.245 16.9927C284.974 17.4946 286.665 17.9964 288.357 18.4983C288.45 18.5169 288.524 18.5355 288.617 18.5355C289.007 18.5355 289.36 18.2938 289.491 17.9035C289.639 17.4202 289.36 16.9183 288.896 16.7696V16.7882ZM278.58 13.8328C276.87 13.3681 275.122 12.922 273.394 12.4759C272.91 12.3644 272.408 12.6432 272.297 13.1265C272.167 13.6097 272.464 14.093 272.947 14.2231C274.676 14.6692 276.405 15.1153 278.115 15.58C278.189 15.5986 278.264 15.6172 278.356 15.6172C278.747 15.6172 279.119 15.357 279.23 14.9481C279.36 14.4648 279.081 13.9629 278.598 13.8328H278.58ZM268.171 11.1934C266.442 10.7844 264.695 10.3755 262.929 9.98516C262.445 9.87364 261.962 10.1896 261.851 10.6729C261.739 11.1562 262.055 11.6395 262.538 11.751C264.286 12.1413 266.014 12.5317 267.743 12.9406C267.817 12.9406 267.892 12.9592 267.947 12.9592C268.356 12.9592 268.728 12.6804 268.821 12.2714C268.933 11.7882 268.635 11.3049 268.152 11.1748L268.171 11.1934ZM335.606 168.092C334.082 168.947 332.521 169.802 330.941 170.657C330.495 170.898 330.327 171.437 330.569 171.883C330.736 172.181 331.052 172.367 331.368 172.367C331.517 172.367 331.666 172.33 331.796 172.255C333.394 171.4 334.974 170.527 336.499 169.671C336.926 169.43 337.093 168.872 336.833 168.445C336.592 168.017 336.034 167.85 335.606 168.092ZM326.201 173.129C324.64 173.928 323.041 174.709 321.424 175.508C320.978 175.731 320.792 176.27 321.015 176.716C321.164 177.032 321.498 177.218 321.833 177.218C321.963 177.218 322.093 177.181 322.223 177.125C323.859 176.326 325.458 175.527 327.019 174.727C327.465 174.504 327.632 173.965 327.409 173.519C327.186 173.073 326.629 172.906 326.201 173.129ZM344.751 162.645C343.283 163.575 341.759 164.504 340.216 165.434C339.789 165.694 339.64 166.251 339.9 166.679C340.067 166.958 340.365 167.125 340.681 167.125C340.829 167.125 340.997 167.088 341.146 166.995C342.707 166.065 344.231 165.118 345.718 164.188C346.146 163.928 346.257 163.37 345.997 162.943C345.737 162.515 345.179 162.385 344.751 162.664V162.645ZM338.487 37.2346C336.926 36.3796 335.346 35.5246 333.748 34.7067C333.302 34.4837 332.763 34.6509 332.521 35.097C332.298 35.5432 332.465 36.0822 332.911 36.3238C334.51 37.1417 336.071 37.9781 337.614 38.8332C337.763 38.9075 337.911 38.9447 338.06 38.9447C338.376 38.9447 338.692 38.7774 338.859 38.48C339.101 38.0339 338.934 37.4949 338.506 37.2532L338.487 37.2346ZM347.763 42.6994C346.257 41.7514 344.733 40.822 343.172 39.9112C342.744 39.6696 342.186 39.7997 341.945 40.2272C341.685 40.6548 341.833 41.2124 342.261 41.4726C343.804 42.3834 345.328 43.3128 346.815 44.2422C346.963 44.3351 347.131 44.3723 347.298 44.3723C347.595 44.3723 347.893 44.2236 348.06 43.9448C348.32 43.5172 348.209 42.9596 347.781 42.6994H347.763ZM328.952 32.2903C327.353 31.5096 325.736 30.7475 324.082 30.004C323.636 29.7996 323.097 30.004 322.892 30.4501C322.688 30.8962 322.892 31.4353 323.339 31.6583C324.974 32.4018 326.573 33.1639 328.153 33.9446C328.283 34.0004 328.413 34.0376 328.543 34.0376C328.878 34.0376 329.194 33.8517 329.361 33.5357C329.584 33.0896 329.398 32.5505 328.952 32.3275V32.2903Z" fill="#FF5722"/>
</svg>
