<svg width="18" height="26" viewBox="0 0 18 26" fill="none" xmlns="http://www.w3.org/2000/svg">
<path d="M17.2667 9.39949C17.2667 4.72158 13.4733 0.928223 8.7954 0.928223C4.1175 0.928223 0.324148 4.72158 0.324148 9.39949C0.324148 9.39949 -0.058598 12.3423 3.29248 17.1223C4.79792 19.2741 8.7954 25.6616 8.7954 25.6616C8.7954 25.6616 12.7929 19.2741 14.2983 17.1223C17.6494 12.3423 17.2667 9.39949 17.2667 9.39949ZM8.7954 15.7274C5.38478 15.7274 2.62058 12.9632 2.62058 9.55258C2.62058 6.14196 5.38478 3.37774 8.7954 3.37774C12.206 3.37774 14.9702 6.14196 14.9702 9.55258C14.9702 12.9632 12.206 15.7274 8.7954 15.7274Z" fill="#FF5722"/>
</svg>
