<svg width="40" height="33" viewBox="0 0 40 33" fill="none" xmlns="http://www.w3.org/2000/svg">
<path d="M9.52743 22.8354C5.30804 25.0473 0.531025 28.4675 0.995716 29.3968C1.47899 30.3076 7.01809 28.3559 11.2561 26.144C11.6464 25.9395 12.0182 25.7537 12.3899 25.5492C13.0033 25.7723 14.3045 26.2555 15.9402 26.8689C15.9216 26.8689 15.8844 26.8689 15.8658 26.8689L14.732 27.4637C14.6019 27.5381 14.5461 27.724 14.639 27.8912L15.2152 28.9879C15.3082 29.1552 15.4755 29.2296 15.6242 29.1552L16.758 28.5604C16.758 28.5604 16.851 28.4675 16.8696 28.3931L18.1893 27.7054C19.5833 28.2258 21.1075 28.7834 22.5945 29.3411L21.4793 29.9173C21.3492 29.9916 21.2934 30.1775 21.3863 30.3448L21.9626 31.4415C22.0555 31.6088 22.2228 31.6831 22.3715 31.6088L23.5053 31.014C23.5053 31.014 23.5983 30.921 23.6169 30.8467L24.8994 30.1775C28.7098 31.5716 31.907 32.7426 32.0371 32.724C32.3159 32.6869 33.9702 31.7575 33.9702 31.7575C34.3605 31.553 34.6579 31.3485 34.6393 31.2928C34.6208 31.2556 34.1561 31.4415 33.7843 31.6459L27.0742 27.5938C27.3716 27.408 27.576 27.2221 27.5202 27.1477C27.4645 27.0548 27.1113 27.1477 26.721 27.3336H26.6838L25.3641 26.5529C25.6429 26.3856 25.8288 26.1998 25.7916 26.1068C25.7358 26.0139 25.3827 26.1068 24.9924 26.2927L23.7842 25.5678L23.115 24.8615C23.4681 24.657 23.7098 24.4525 23.654 24.3596C23.5983 24.2667 23.2451 24.3596 22.8548 24.5455H22.8362L21.4979 23.1328C21.851 22.9469 22.0927 22.7239 22.0369 22.6309C21.9812 22.538 21.628 22.6309 21.2377 22.8168L20.0109 21.5157C22.8362 20.0101 23.9329 19.3781 26.0333 18.2814C28.1522 17.1848 30.1039 15.9766 31.7211 14.8613C33.8029 15.6234 37.9107 17.1662 37.9107 17.1662L39.1375 16.6457L35.2155 12.1661C35.5501 11.8687 35.7918 11.6271 35.959 11.4412C36.7955 10.9207 37.316 10.5676 37.2602 10.4746C37.223 10.3817 36.6468 10.5862 35.7732 10.9765C35.5129 11.0137 35.1598 11.088 34.6951 11.2181L33.2453 5.38162L32.1114 6.08795C32.1114 6.08795 30.959 10.6419 30.4014 12.7052C28.6355 13.3743 26.628 14.2107 24.5091 15.1215C21.8882 16.4784 20.7172 17.0547 18.3008 18.2814L17.929 16.5342C18.3194 16.3297 18.5982 16.0695 18.5424 15.9766C18.4867 15.8836 18.1707 15.9766 17.8175 16.1253L17.4086 14.2107H17.4272C17.8175 13.9877 18.0964 13.7461 18.0406 13.6531C17.9848 13.5602 17.6688 13.6531 17.3157 13.8204L17.1112 12.8724L17.2041 11.4598C17.5945 11.2553 17.8733 10.9951 17.8175 10.9022C17.7803 10.8278 17.5201 10.865 17.2041 10.9951L17.297 9.45232H17.3343C17.7246 9.22927 18.0034 8.98762 17.9476 8.87609C17.9104 8.80174 17.6316 8.83893 17.3157 8.98763L17.8175 1.16224C18.1893 0.957775 18.6168 0.69754 18.5982 0.660365C18.5796 0.623189 18.245 0.734722 17.8361 0.957774C17.8361 0.957774 16.1261 1.77562 15.9402 1.99868C15.8658 2.09161 14.9922 5.38163 13.9513 9.30362L12.6687 9.97277C12.6687 9.97277 12.5387 9.95418 12.4643 9.97277L11.3304 10.5676C11.2003 10.6419 11.1446 10.8278 11.2375 10.9951L11.8137 12.0918C11.9067 12.259 12.074 12.3334 12.2227 12.259L13.3379 11.6828C12.929 13.2256 12.52 14.787 12.1483 16.2368L10.8286 16.9245C10.8286 16.9245 10.6984 16.906 10.6241 16.9245L9.49028 17.5193C9.36016 17.5937 9.30437 17.7796 9.3973 17.9469L9.97352 19.0435C10.0665 19.2108 10.2337 19.2852 10.3824 19.2108L11.5163 18.616C11.5163 18.616 11.5349 18.5788 11.5535 18.5602C11.126 20.2331 10.7728 21.5529 10.6055 22.2034C10.2338 22.3893 9.86201 22.5938 9.47167 22.7982L9.52743 22.8354Z" fill="#FF5722"/>
</svg>
