<svg width="36" height="33" viewBox="0 0 36 33" fill="none" xmlns="http://www.w3.org/2000/svg">
<path d="M28.1844 8.59925C31.9019 5.62523 35.9354 1.33149 35.2849 0.532224C34.6343 -0.267044 29.5599 2.70697 25.8424 5.69958C25.5078 5.9784 25.1732 6.23862 24.8572 6.49885C24.2066 6.38733 22.8497 6.16427 21.1211 5.88546C21.1397 5.88546 21.1769 5.88546 21.1954 5.88546L22.1992 5.08619C22.3293 4.99325 22.3293 4.78879 22.1992 4.65868L21.4185 3.69212C21.307 3.54342 21.1211 3.50624 20.991 3.61777L19.9872 4.41704C19.9872 4.41704 19.9129 4.52856 19.8943 4.60291L18.7233 5.53229C17.2549 5.29065 15.6563 5.03043 14.0764 4.7702L15.0615 3.98952C15.1916 3.89658 15.1916 3.69212 15.0615 3.56201L14.2809 2.59545C14.1693 2.44675 13.9834 2.40957 13.8533 2.5211L12.8496 3.32037C12.8496 3.32037 12.7753 3.43189 12.7567 3.50624L11.6228 4.39845C7.60789 3.74788 4.24353 3.22743 4.13201 3.2646C3.85319 3.35754 2.42194 4.58432 2.42194 4.58432C2.06878 4.86314 1.82714 5.12337 1.84573 5.16054C1.8829 5.19772 2.29183 4.9189 2.62641 4.65868L10.0057 7.35388C9.74547 7.59552 9.59677 7.81857 9.65253 7.89292C9.72688 7.98586 10.0615 7.81857 10.396 7.53976L10.4332 7.50258L11.883 8.04162C11.6414 8.26468 11.4927 8.48773 11.5485 8.56208C11.6228 8.65502 11.9574 8.48773 12.292 8.20891L13.6117 8.6736L14.411 9.24982C14.1136 9.51005 13.9091 9.77027 13.9649 9.84462C14.0392 9.93756 14.3738 9.77028 14.7084 9.49146H14.727L16.3069 10.6067C16.0095 10.8669 15.805 11.1272 15.8794 11.2015C15.9537 11.2945 16.2883 11.1272 16.6229 10.8484L18.0727 11.8893C15.6006 13.9153 14.634 14.7332 12.7938 16.2202C10.9351 17.7072 9.24361 19.2686 7.88671 20.6626C5.69337 20.328 1.36245 19.6031 1.36245 19.6031L0.247192 20.3466L4.94986 23.9898C4.68963 24.343 4.48517 24.6218 4.37364 24.8448C3.64872 25.514 3.22121 25.9601 3.27697 26.0345C3.33273 26.1088 3.85319 25.8114 4.63387 25.2538C4.87551 25.1794 5.21009 25.0121 5.6376 24.8077L8.18411 30.2538L9.16925 29.3431C9.16925 29.3431 9.42948 24.659 9.57818 22.5214C11.1767 21.5177 12.9983 20.328 14.8942 19.0083C17.1991 17.1681 18.24 16.3875 20.3776 14.7146L21.0653 16.3503C20.7122 16.6477 20.4891 16.9265 20.5635 17.0194C20.6192 17.0938 20.9166 16.9637 21.2512 16.722L22.0133 18.525H21.9947C21.6415 18.8224 21.4185 19.1199 21.4929 19.1942C21.5486 19.2686 21.8646 19.1384 22.1806 18.8968L22.5709 19.789L22.7568 21.1831C22.4036 21.4619 22.1806 21.7593 22.2549 21.8522C22.3107 21.9266 22.5524 21.8336 22.8312 21.6292L23.0356 23.172H22.9984C22.6453 23.4694 22.4222 23.7668 22.4966 23.8597C22.5524 23.934 22.8126 23.8225 23.0914 23.6181L24.0951 31.4063C23.7791 31.6851 23.4074 32.0197 23.426 32.0568C23.4631 32.094 23.7605 31.9081 24.1137 31.6293C24.1137 31.6293 25.6379 30.4955 25.768 30.2538C25.8238 30.1609 26.0468 26.7594 26.307 22.7073L27.4409 21.8151C27.4409 21.8151 27.5896 21.8151 27.6454 21.7779L28.6491 20.9786C28.7792 20.8857 28.7792 20.6812 28.6491 20.5511L27.8684 19.5845C27.7569 19.4358 27.571 19.3987 27.4409 19.5102L26.4557 20.2909C26.5487 18.6923 26.6416 17.0938 26.7346 15.5882L27.9056 14.6588C27.9056 14.6588 28.0543 14.6588 28.11 14.6216L29.1138 13.8224C29.2439 13.7294 29.2439 13.525 29.1138 13.3949L28.3331 12.4283C28.2216 12.2796 28.0357 12.2424 27.9056 12.354L26.9018 13.1532C26.9018 13.1532 26.9019 13.1904 26.8647 13.2276C26.9762 11.4989 27.0506 10.142 27.0877 9.47287C27.4037 9.21265 27.7383 8.95242 28.0915 8.6736L28.1844 8.59925Z" fill="#FF5722"/>
</svg>
