<svg width="32" height="32" viewBox="0 0 32 32" fill="none" xmlns="http://www.w3.org/2000/svg">
<path d="M28.5806 3.44248C27.9136 2.75797 26.9266 2.50296 26.0062 2.77138L4.54402 9.01253C3.57295 9.28232 2.88467 10.0568 2.69926 11.0406C2.50985 12.0418 3.17146 13.3129 4.03581 13.8444L10.7466 17.9689C11.4348 18.3917 12.3232 18.2857 12.8928 17.7112L20.5772 9.9789C20.964 9.57625 21.6043 9.57625 21.9912 9.9789C22.378 10.3681 22.378 10.999 21.9912 11.4016L14.2934 19.1353C13.7224 19.7084 13.6158 20.6009 14.0359 21.2934L18.1363 28.0716C18.6164 28.8768 19.4435 29.3332 20.3504 29.3332C20.4572 29.3332 20.5772 29.3332 20.684 29.3197C21.7244 29.1856 22.5514 28.4742 22.8582 27.4676L29.2208 6.03289C29.501 5.12021 29.2475 4.127 28.5806 3.44248Z" fill="white"/>
</svg>
